<svg width="30" height="30" viewBox="0 0 30 30" fill="none" xmlns="http://www.w3.org/2000/svg">
<g clip-path="url(#clip0_226_75)">
<path d="M10.6641 30.2344C13.4531 30.2344 15.7031 27.9844 15.7031 25.1953V20.1562H10.6641C7.875 20.1562 5.625 22.4063 5.625 25.1953C5.625 27.9844 7.875 30.2344 10.6641 30.2344Z" fill="#0ACF83"/>
<path d="M5.625 15.1172C5.625 12.3281 7.875 10.0781 10.6641 10.0781H15.7031V20.1563H10.6641C7.875 20.1563 5.625 17.9063 5.625 15.1172Z" fill="#A259FF"/>
<path d="M5.625 5.03906C5.625 2.25 7.875 0 10.6641 0H15.7031V10.0781H10.6641C7.875 10.0781 5.625 7.82813 5.625 5.03906Z" fill="#F24E1E"/>
<path d="M15.7031 0H20.7422C23.5313 0 25.7813 2.25 25.7813 5.03906C25.7813 7.82813 23.5313 10.0781 20.7422 10.0781H15.7031V0Z" fill="#FF7262"/>
<path d="M25.7813 15.1172C25.7813 17.9063 23.5313 20.1563 20.7422 20.1563C17.9531 20.1563 15.7031 17.9063 15.7031 15.1172C15.7031 12.3281 17.9531 10.0781 20.7422 10.0781C23.5313 10.0781 25.7813 12.3281 25.7813 15.1172Z" fill="#1ABCFE"/>
</g>
<defs>
<clipPath id="clip0_226_75">
<rect width="30" height="30" fill="white"/>
</clipPath>
</defs>
</svg>
