<svg width="29" height="29" viewBox="0 0 29 29" fill="none" xmlns="http://www.w3.org/2000/svg">
<g clip-path="url(#clip0_226_160)">
<path d="M22.8252 18.2876C22.8252 19.9483 24.1796 21.3048 25.8405 21.3048C27.5014 21.3048 28.8574 19.9483 28.8574 18.2876C28.8574 16.6269 27.501 15.2705 25.8403 15.2705H22.825L22.8252 18.2876ZM21.3052 18.2876C21.3052 16.6269 19.9488 15.2705 18.2881 15.2705C16.6274 15.2705 15.2709 16.6267 15.2709 18.2876V25.8401C15.2709 27.5008 16.6271 28.8572 18.2881 28.8572C19.9488 28.8572 21.3052 27.5008 21.3052 25.8401V18.2876Z" fill="#DE1C59"/>
<path d="M18.2881 6.17481C19.9488 6.17481 21.3052 4.82041 21.3052 3.15948C21.3052 1.49855 19.9488 0.142578 18.2881 0.142578C16.6274 0.142578 15.2709 1.49901 15.2709 3.15971V6.17503L18.2881 6.17481ZM18.2881 7.69481C16.6274 7.69481 15.2709 9.05124 15.2709 10.7119C15.2709 12.3726 16.6271 13.7291 18.2881 13.7291H25.8405C27.5012 13.7291 28.8574 12.3729 28.8574 10.7119C28.8574 9.05124 27.501 7.69481 25.8403 7.69481H18.2881Z" fill="#35C5F0"/>
<path d="M6.1762 10.7119C6.1762 9.05124 4.82181 7.69481 3.16088 7.69481C1.49995 7.69481 0.143743 9.05124 0.143743 10.7119C0.143743 12.3726 1.50017 13.7291 3.16088 13.7291H6.1762V10.7119ZM7.6962 10.7119C7.6962 12.3726 9.05263 13.7291 10.7133 13.7291C12.374 13.7291 13.7305 12.3729 13.7305 10.7119V3.15948C13.7305 1.49878 12.3743 0.142578 10.7133 0.142578C9.05263 0.142578 7.6962 1.49901 7.6962 3.15971V10.7119Z" fill="#2EB57D"/>
<path d="M10.7133 22.8248C9.05263 22.8248 7.6962 24.1792 7.6962 25.8401C7.6962 27.501 9.05263 28.8572 10.7133 28.8572C12.374 28.8572 13.7305 27.5008 13.7305 25.8401V22.8248H10.7133ZM10.7133 21.3048C12.374 21.3048 13.7305 19.9483 13.7305 18.2876C13.7305 16.6269 12.3743 15.2705 10.7133 15.2705H3.16088C1.50017 15.2705 0.143743 16.6267 0.143743 18.2876C0.143743 19.9483 1.50017 21.3048 3.16088 21.3048H10.7133Z" fill="#EBB02E"/>
</g>
<defs>
<clipPath id="clip0_226_160">
<rect width="29" height="29" fill="white" transform="matrix(-1 0 0 1 29 0)"/>
</clipPath>
</defs>
</svg>
