<svg width="53" height="53" viewBox="0 0 53 53" fill="none" xmlns="http://www.w3.org/2000/svg">
<path fill-rule="evenodd" clip-rule="evenodd" d="M36.746 33.4122L38.3802 30.6518H46.1756L48.5827 26.5002L43.7685 18.2189H36.989L34.6481 14.1114H32.0202V11.3289H36.3044L38.6452 15.4585H42.1565L37.3202 7.17725H27.8906V18.2189H31.711L33.3231 20.9793H27.8906V26.5002H32.8815L35.2002 22.3706H41.4056L42.9956 25.131H36.8123L34.4935 29.2606H27.8906V38.9331H35.399L33.809 41.6935H27.8906V45.8231H37.3202L44.5635 33.4122H39.9481L38.336 36.1727H32.0202V33.4122H36.746Z" fill="#4285F4"/>
<path fill-rule="evenodd" clip-rule="evenodd" d="M16.2527 33.4122L14.6185 30.6518H6.8231L4.41602 26.5002L9.23018 18.2189H16.0098L18.3506 14.1114H20.9785V11.3289H16.6943L14.3535 15.4585H10.8423L15.6785 7.17725H25.1302V18.2189H21.2877L19.6756 20.9793H25.1302V26.5002H20.1173L17.7985 22.3706H11.5931L10.0031 25.131H16.1864L18.5052 29.2606H25.1302V38.9331H17.5998L19.1898 41.6935H25.1302V45.8231H15.6785L8.43518 33.4122H13.0506L14.6627 36.1727H20.9785V33.4122H16.2527Z" fill="#669DF6"/>
</svg>
