<svg width="97" height="27" viewBox="0 0 97 27" fill="none" xmlns="http://www.w3.org/2000/svg">
<path fill-rule="evenodd" clip-rule="evenodd" d="M45.938 10.8C44.7397 10.7999 43.5754 10.402 42.6279 9.66894C41.6805 8.93587 41.0036 7.90913 40.7037 6.75H34.5099C33.8702 6.75009 33.2513 6.97688 32.7633 7.39003C32.2752 7.80318 31.9497 8.3759 31.8446 9.00631L31.6226 10.3381C31.4196 11.5633 30.7984 12.6806 29.8644 13.5C30.7978 14.3196 31.4185 15.4369 31.621 16.6619L31.8431 17.9937C31.9482 18.6241 32.2737 19.1968 32.7618 19.61C33.2498 20.0231 33.8687 20.2499 34.5084 20.25H35.2988C35.6277 18.9774 36.4098 17.8683 37.4986 17.1307C38.5874 16.393 39.9081 16.0774 41.2131 16.243C42.5181 16.4086 43.7179 17.0441 44.5875 18.0303C45.4572 19.0165 45.9369 20.2857 45.9369 21.6C45.9369 22.9143 45.4572 24.1835 44.5875 25.1697C43.7179 26.1559 42.5181 26.7913 41.2131 26.9569C39.9081 27.1226 38.5874 26.807 37.4986 26.0693C36.4098 25.3316 35.6277 24.2226 35.2988 22.95H34.5084C33.2288 22.9503 31.9907 22.4969 31.0144 21.6705C30.0381 20.8442 29.387 19.6985 29.177 18.4374L28.955 17.1063C28.8499 16.4759 28.5243 15.9032 28.0363 15.49C27.5483 15.0769 26.9293 14.8501 26.2897 14.85H24.1488C23.8486 16.009 23.1716 17.0356 22.2241 17.7684C21.2766 18.5013 20.1123 18.899 18.9141 18.899C17.7158 18.899 16.5515 18.5013 15.604 17.7684C14.6565 17.0356 13.9795 16.009 13.6793 14.85H10.6381C10.3092 16.1226 9.52711 17.2316 8.43833 17.9693C7.34954 18.707 6.02886 19.0226 4.72384 18.857C3.41881 18.6913 2.21904 18.0559 1.34941 17.0697C0.479781 16.0835 0 14.8143 0 13.5C0 12.1857 0.479781 10.9165 1.34941 9.93028C2.21904 8.9441 3.41881 8.30865 4.72384 8.14304C6.02886 7.97743 7.34954 8.29303 8.43833 9.03069C9.52711 9.76834 10.3092 10.8774 10.6381 12.15H13.6808C13.981 10.991 14.658 9.96443 15.6055 9.23156C16.553 8.49869 17.7173 8.10103 18.9156 8.10103C20.1138 8.10103 21.2781 8.49869 22.2256 9.23156C23.1731 9.96443 23.8501 10.991 24.1503 12.15H26.2912C27.6121 12.15 28.739 11.196 28.9565 9.89369L29.1785 8.56262C29.3885 7.30154 30.0396 6.15583 31.0159 5.32947C31.9922 4.5031 33.2303 4.04971 34.5099 4.05H40.7044C40.9572 3.07214 41.4793 2.18467 42.2115 1.48841C42.9437 0.79215 43.8567 0.314995 44.8467 0.111146C45.8368 -0.0927036 46.8642 -0.0150776 47.8123 0.335206C48.7604 0.685489 49.5912 1.29439 50.2103 2.09275C50.8294 2.89111 51.212 3.84693 51.3146 4.85164C51.4173 5.85635 51.2359 6.86969 50.791 7.77656C50.3461 8.68343 49.6556 9.44747 48.7979 9.98192C47.9402 10.5164 46.9489 10.7998 45.938 10.8ZM45.9388 8.1C46.2937 8.1 46.6451 8.03016 46.973 7.89447C47.3009 7.75878 47.5988 7.55991 47.8497 7.30919C48.1007 7.05847 48.2997 6.76082 48.4355 6.43324C48.5713 6.10566 48.6412 5.75457 48.6412 5.4C48.6412 5.04543 48.5713 4.69433 48.4355 4.36676C48.2997 4.03918 48.1007 3.74153 47.8497 3.49081C47.5988 3.24009 47.3009 3.04121 46.973 2.90553C46.6451 2.76984 46.2937 2.7 45.9388 2.7C45.2221 2.7 44.5347 2.98446 44.0279 3.49081C43.5211 3.99716 43.2364 4.68391 43.2364 5.4C43.2364 6.11608 43.5211 6.80284 44.0279 7.30919C44.5347 7.81554 45.2221 8.1 45.9388 8.1ZM5.40376 16.2C6.12049 16.2 6.80787 15.9155 7.31467 15.4092C7.82148 14.9028 8.1062 14.2161 8.1062 13.5C8.1062 12.7839 7.82148 12.0972 7.31467 11.5908C6.80787 11.0845 6.12049 10.8 5.40376 10.8C4.68703 10.8 3.99965 11.0845 3.49285 11.5908C2.98604 12.0972 2.70132 12.7839 2.70132 13.5C2.70132 14.2161 2.98604 14.9028 3.49285 15.4092C3.99965 15.9155 4.68703 16.2 5.40376 16.2ZM21.6169 13.5C21.6229 13.8583 21.5574 14.2143 21.4243 14.547C21.2912 14.8798 21.0932 15.1828 20.8417 15.4383C20.5902 15.6939 20.2902 15.8968 19.9594 16.0353C19.6286 16.1739 19.2735 16.2452 18.9148 16.2452C18.5561 16.2452 18.201 16.1739 17.8702 16.0353C17.5394 15.8968 17.2395 15.6939 16.988 15.4383C16.7365 15.1828 16.5384 14.8798 16.4053 14.547C16.2722 14.2143 16.2067 13.8583 16.2128 13.5C16.2246 12.7918 16.5145 12.1167 17.02 11.6201C17.5254 11.1235 18.2059 10.8452 18.9148 10.8452C19.6237 10.8452 20.3042 11.1235 20.8097 11.6201C21.3151 12.1167 21.605 12.7918 21.6169 13.5ZM43.2364 21.6C43.2364 22.3161 42.9516 23.0028 42.4448 23.5092C41.938 24.0155 41.2507 24.3 40.5339 24.3C39.8172 24.3 39.1298 24.0155 38.623 23.5092C38.1162 23.0028 37.8315 22.3161 37.8315 21.6C37.8315 20.8839 38.1162 20.1972 38.623 19.6908C39.1298 19.1845 39.8172 18.9 40.5339 18.9C41.2507 18.9 41.938 19.1845 42.4448 19.6908C42.9516 20.1972 43.2364 20.8839 43.2364 21.6Z" fill="#EA4B71"/>
<path fill-rule="evenodd" clip-rule="evenodd" d="M81.0742 11.6755V11.5468C82.0169 11.0743 82.9597 10.2596 82.9597 8.65144C82.9597 6.33532 81.0522 4.94141 78.4165 4.94141C75.7163 4.94141 73.7876 6.42088 73.7876 8.6946C73.7876 10.2384 74.6879 11.0743 75.6739 11.546V11.6747C74.9621 11.9331 74.3486 12.4065 73.9185 13.0291C73.4884 13.6518 73.2631 14.3928 73.2738 15.1493C73.2738 17.4866 75.2025 19.1168 78.3952 19.1168C81.588 19.1168 83.4523 17.4866 83.4523 15.1493C83.4523 13.2186 82.167 12.0836 81.0742 11.6755ZM78.3952 6.91378C79.4668 6.91378 80.2595 7.59976 80.2595 8.75745C80.2595 9.91588 79.4448 10.6019 78.3952 10.6019C77.3456 10.6019 76.4666 9.91588 76.4666 8.75745C76.4666 7.57856 77.3024 6.91378 78.3952 6.91378ZM78.3952 17.0566C77.1524 17.0566 76.1445 16.2631 76.1445 14.9123C76.1445 13.6903 76.9804 12.7681 78.3733 12.7681C79.7449 12.7681 80.5808 13.6691 80.5808 14.9555C80.5808 16.2631 79.6169 17.0566 78.3952 17.0566Z" fill="white"/>
<path d="M86.7568 18.9011H89.4994V13.09C89.4994 11.1812 90.6566 10.3446 91.9639 10.3446C93.2492 10.3446 94.2571 11.2024 94.2571 12.9613V18.9011H96.9997V12.4033C96.9997 9.59423 95.3703 7.96484 92.821 7.96484C91.2144 7.96484 90.3133 8.60842 89.6707 9.44432H89.4994L89.2637 8.17912H86.7568V18.9011ZM62.4758 18.9011H59.7324V8.17912H62.2401L62.475 9.44356H62.6471C63.2897 8.60767 64.19 7.96484 65.7974 7.96484C68.3475 7.96484 69.9761 9.59423 69.9761 12.4033V18.9011H67.2327V12.9613C67.2327 11.2024 66.2255 10.3446 64.9403 10.3446C63.633 10.3446 62.4758 11.1812 62.4758 13.09V18.9011Z" fill="white"/>
</svg>
