<svg width="31" height="44" viewBox="0 0 31 44" fill="none" xmlns="http://www.w3.org/2000/svg">
<g clip-path="url(#clip0_226_94)">
<path d="M0.0530872 8.625L2.86743 40.3586L15.5181 43.8886L28.1339 40.3635L30.9453 8.625H0.0530872Z" fill="#E44D26"/>
<path d="M15.5 41.1906L5.27763 38.3381L2.87271 11.2202H15.5V41.1906Z" fill="#F16529"/>
<path d="M20.9707 19.0054H15.4997V15.1128H25.1973L25.1048 16.1571L24.1542 26.8841H15.4997V22.9915H20.6173L20.9707 19.0054ZM20.0991 28.8304H23.9814L23.4396 34.9424L15.5175 37.1558L15.4997 37.1509V33.101L15.5167 33.1055L19.8237 31.9349L20.0991 28.8304Z" fill="#EBEBEB"/>
<path d="M28.0723 0H26.1069V1.9544H24.309V0H22.3436V5.91843H24.3089V3.9366H26.1068V5.91843H28.0721L28.0723 0ZM19.7592 1.96269H21.4891V0H16.0624V1.96269H17.7935V5.91843H19.7588V1.96269H19.7592ZM15.2012 0H13.1519L11.8914 2.07958L10.632 0H8.58186V5.91843H10.5392V2.98493L11.8914 5.08925H11.9253L13.2782 2.98493V5.91843H15.2012V0ZM7.60379 0H5.63783V3.96219H2.87399V5.91843H7.60391L7.60379 0Z" fill="black"/>
<path d="M15.5136 26.8841H10.7513L11.2003 31.9325L15.5137 33.1043V37.154L7.5853 34.9424L7.52718 34.2847L6.61825 24.0367L6.52391 22.9915H15.5136V26.8841ZM15.5136 18.9959V19.0054H6.17202L6.09451 18.1305L5.9182 16.1571L5.82581 15.1128H15.5136V18.9959Z" fill="white"/>
</g>
<defs>
<clipPath id="clip0_226_94">
<rect width="31" height="44" fill="white" transform="matrix(-1 0 0 1 31 0)"/>
</clipPath>
</defs>
</svg>
