<svg width="61" height="61" viewBox="0 0 61 61" fill="none" xmlns="http://www.w3.org/2000/svg">
<path d="M2.86186 42.0572C1.9553 41.1619 1.23551 40.0955 0.744238 38.9199C0.25297 37.7443 0 36.4828 0 35.2087C0 33.9346 0.25297 32.6731 0.744238 31.4975C1.23551 30.3219 1.9553 29.2555 2.86186 28.3602L13.2268 18.0868C14.7688 16.5632 16.771 15.5917 18.922 15.3233C21.0731 15.0548 23.2526 15.5045 25.1218 16.6024C26.2808 17.2887 26.2706 18.8543 25.3175 19.7998C24.3644 20.7453 22.8063 20.664 21.5126 20.2878C20.6715 20.0414 19.7797 20.0248 18.9299 20.2398C18.0802 20.4548 17.3036 20.8935 16.6809 21.5104L6.31598 31.7838C5.86266 32.2316 5.50274 32.7649 5.25709 33.3528C5.01144 33.9407 4.88495 34.5715 4.88495 35.2087C4.88495 35.8459 5.01144 36.4767 5.25709 37.0646C5.50274 37.6525 5.86266 38.1858 6.31598 38.6336C8.22223 40.5246 11.318 40.5246 13.2268 38.6336L33.9541 18.0868C35.7949 16.2699 38.2772 15.2513 40.8636 15.2513C43.45 15.2513 45.9323 16.2699 47.7731 18.0868L58.138 28.3602C59.0446 29.2555 59.7644 30.3219 60.2556 31.4975C60.7469 32.6731 60.9999 33.9346 60.9999 35.2087C60.9999 36.4828 60.7469 37.7443 60.2556 38.9199C59.7644 40.0955 59.0446 41.1619 58.138 42.0572C56.2972 43.8741 53.8149 44.8927 51.2285 44.8927C48.6421 44.8927 46.1598 43.8741 44.319 42.0572L40.8623 38.6336L36.5466 42.9138C35.0042 44.4369 33.0019 45.408 30.8509 45.6759C28.6998 45.9439 26.5205 45.4938 24.6516 44.3956C23.49 43.7144 23.5002 42.1462 24.4533 41.2007C25.409 40.2552 26.9645 40.3365 28.2607 40.7127C29.1015 40.9587 29.9928 40.975 30.8421 40.76C31.6913 40.545 32.4675 40.1066 33.0899 39.4901L37.5327 35.0854C38.4199 34.2092 39.6166 33.7179 40.8636 33.7179C42.1105 33.7179 43.3072 34.2092 44.1944 35.0854L47.7731 38.6336C49.6794 40.5246 52.7751 40.5246 54.6839 38.6336C55.1372 38.1858 55.4971 37.6525 55.7428 37.0646C55.9884 36.4767 56.1149 35.8459 56.1149 35.2087C56.1149 34.5715 55.9884 33.9407 55.7428 33.3528C55.4971 32.7649 55.1372 32.2316 54.6839 31.7838L44.319 21.5104C43.3985 20.6016 42.1571 20.092 40.8636 20.092C39.5701 20.092 38.3287 20.6016 37.4082 21.5104L16.6809 42.0572C14.8401 43.8741 12.3578 44.8927 9.77138 44.8927C7.18499 44.8927 4.70267 43.8741 2.86186 42.0572Z" fill="#00005B"/>
</svg>
