<svg width="44" height="44" viewBox="0 0 44 44" fill="none" xmlns="http://www.w3.org/2000/svg">
<path d="M34.8342 2.75H9.16685C5.62292 2.75 2.75 5.62292 2.75 9.16685V34.8342C2.75 38.3782 5.62292 41.2511 9.16685 41.2511H34.8342C38.3782 41.2511 41.2511 38.3782 41.2511 34.8342V9.16685C41.2511 5.62292 38.3782 2.75 34.8342 2.75Z" fill="#A7F175"/>
<path d="M20.8622 29.3769C19.1917 29.3769 18.1291 28.3635 18.1291 27.0782C18.1291 21.5778 32.5933 20.4767 32.5933 14.6354C32.5933 11.072 28.4655 9.53613 23.1963 9.53613C19.9911 9.53613 16.367 10.1294 13.0012 11.1909V18.1593C17.9613 14.5466 23.4723 13.0001 27.0221 13.0001C29.2542 13.0001 30.7687 13.6229 30.7687 14.7388C30.7687 19.3361 10.8203 18.6076 10.8203 28.5417C10.8203 32.3495 13.4385 34.531 17.1221 34.531C22.6939 34.531 26.9083 29.1163 30.0612 22.516L30.7 22.7454C29.0395 26.7789 25.6033 31.2015 24.934 34.0445H32.1072V19.3363H30.4506C28.0459 24.5618 24.5219 29.377 20.8627 29.377" fill="black"/>
</svg>
